<svg width="22" height="22" viewBox="0 0 22 22" fill="none" xmlns="http://www.w3.org/2000/svg">
<path d="M6.248 4C5.85833 4 5.48461 4.1548 5.20907 4.43034C4.93353 4.70588 4.77873 5.0796 4.77873 5.46927V7.4283C4.77873 7.81798 4.93353 8.19169 5.20907 8.46724C5.48461 8.74278 5.85833 8.89758 6.248 8.89758H6.73776V12.6589C6.6636 12.7021 6.59543 12.7547 6.535 12.8156L4.77873 14.5719C4.5951 14.7556 4.49194 15.0047 4.49194 15.2644C4.49194 15.5242 4.5951 15.7733 4.77873 15.9569L6.535 17.7132C6.71869 17.8968 6.96779 18 7.22752 18C7.48725 18 7.73635 17.8968 7.92004 17.7132L9.67631 15.9569C9.73769 15.8949 9.78993 15.8273 9.83303 15.7542H13.5944V16.2439C13.5944 16.6336 13.7492 17.0073 14.0247 17.2829C14.3003 17.5584 14.674 17.7132 15.0636 17.7132H17.0227C17.4123 17.7132 17.7861 17.5584 18.0616 17.2829C18.3371 17.0073 18.4919 16.6336 18.4919 16.2439V14.2849C18.4919 13.8952 18.3371 13.5215 18.0616 13.246C17.7861 12.9704 17.4123 12.8156 17.0227 12.8156H15.0636C14.674 12.8156 14.3003 12.9704 14.0247 13.246C13.7492 13.5215 13.5944 13.8952 13.5944 14.2849V14.7747H9.83303C9.78989 14.7005 9.7372 14.6323 9.67631 14.5719L7.92004 12.8156C7.85961 12.7547 7.79144 12.7021 7.71728 12.6589V8.89758H8.20703C8.59671 8.89758 8.97043 8.74278 9.24597 8.46724C9.52151 8.19169 9.67631 7.81798 9.67631 7.4283V5.46927C9.67631 5.0796 9.52151 4.70588 9.24597 4.43034C8.97043 4.1548 8.59671 4 8.20703 4H6.248ZM5.75825 5.46927C5.75825 5.33938 5.80985 5.21481 5.90169 5.12296C5.99354 5.03111 6.11811 4.97952 6.248 4.97952H8.20703C8.33693 4.97952 8.4615 5.03111 8.55335 5.12296C8.64519 5.21481 8.69679 5.33938 8.69679 5.46927V7.4283C8.69679 7.55819 8.64519 7.68277 8.55335 7.77461C8.4615 7.86646 8.33693 7.91806 8.20703 7.91806H6.248C6.11811 7.91806 5.99354 7.86646 5.90169 7.77461C5.80985 7.68277 5.75825 7.55819 5.75825 7.4283V5.46927ZM5.47125 15.2644L7.22752 13.5082L8.98379 15.2644L7.22752 17.0207L5.47125 15.2644ZM15.0636 13.7952H17.0227C17.1526 13.7952 17.2771 13.8468 17.369 13.9386C17.4608 14.0304 17.5124 14.155 17.5124 14.2849V16.2439C17.5124 16.3738 17.4608 16.4984 17.369 16.5903C17.2771 16.6821 17.1526 16.7337 17.0227 16.7337H15.0636C14.9337 16.7337 14.8092 16.6821 14.7173 16.5903C14.6255 16.4984 14.5739 16.3738 14.5739 16.2439V14.2849C14.5739 14.155 14.6255 14.0304 14.7173 13.9386C14.8092 13.8468 14.9337 13.7952 15.0636 13.7952Z" fill="black"/>
</svg>
