<svg width="14" height="15" viewBox="0 0 14 15" fill="none" xmlns="http://www.w3.org/2000/svg">
<path d="M1 14.025H4.692V9.07507C4.692 8.85213 4.76967 8.66526 4.925 8.51446C5.07967 8.36302 5.27133 8.28729 5.5 8.28729H8.5C8.72867 8.28729 8.92067 8.36302 9.076 8.51446C9.23067 8.66526 9.308 8.85213 9.308 9.07507V14.025H13V5.55054C13 5.45044 12.9777 5.35944 12.933 5.27754C12.8883 5.19564 12.8273 5.12415 12.75 5.06305L7.366 1.1066C7.26333 1.0195 7.14133 0.975951 7 0.975951C6.85867 0.975951 6.737 1.0195 6.635 1.1066L1.25 5.06305C1.17333 5.12545 1.11233 5.19695 1.067 5.27754C1.02167 5.35814 0.999333 5.44914 1 5.55054V14.025ZM0 14.025V5.55054C0 5.30094 0.0573333 5.06467 0.172 4.84173C0.286667 4.61878 0.444667 4.43516 0.646 4.29087L6.031 0.314918C6.313 0.104973 6.635 0 6.997 0C7.359 0 7.683 0.104973 7.969 0.314918L13.354 4.28989C13.556 4.43419 13.714 4.61813 13.828 4.84173C13.9427 5.06467 14 5.30094 14 5.55054V14.025C14 14.2863 13.9003 14.5141 13.701 14.7085C13.5017 14.9028 13.268 15 13 15H9.116C8.88667 15 8.69467 14.9246 8.54 14.7738C8.38533 14.6224 8.308 14.4352 8.308 14.2122V9.26324H5.692V14.2122C5.692 14.4358 5.61467 14.623 5.46 14.7738C5.30533 14.9246 5.11367 15 4.885 15H1C0.732 15 0.498333 14.9028 0.299 14.7085C0.0996664 14.5141 0 14.2863 0 14.025Z" fill="white"/>
</svg>
