<svg width="16" height="16" viewBox="0 0 16 16" fill="none" xmlns="http://www.w3.org/2000/svg">
<path d="M13.5156 0C14.0984 6.77435e-05 14.6573 0.231472 15.0693 0.643555C15.4814 1.05568 15.7129 1.61448 15.7129 2.19727V13.5137C15.7128 14.0964 15.4814 14.6553 15.0693 15.0674C14.6573 15.4795 14.0984 15.7109 13.5156 15.7109H2.19727C1.61447 15.7109 1.05567 15.4795 0.643555 15.0674C0.231463 14.6553 5.69202e-05 14.0965 0 13.5137V2.19727C0 1.61444 0.23146 1.05569 0.643555 0.643555C1.05567 0.231438 1.61445 2.94274e-05 2.19727 0H13.5156ZM2.19727 0.878906C1.84759 0.878936 1.51191 1.01739 1.26465 1.26465C1.01741 1.51193 0.878906 1.84759 0.878906 2.19727V13.5137C0.878963 13.8633 1.01741 14.1991 1.26465 14.4463C1.5119 14.6935 1.84762 14.832 2.19727 14.832H13.5156C13.8652 14.832 14.201 14.6935 14.4482 14.4463C14.6955 14.1991 14.8339 13.8633 14.834 13.5137V2.19727C14.834 1.84762 14.6954 1.51192 14.4482 1.26465C14.201 1.01742 13.8652 0.878974 13.5156 0.878906H2.19727ZM4.33984 6.97656C4.82534 6.97656 5.21875 7.36997 5.21875 7.85547C5.2187 8.34092 4.82531 8.73438 4.33984 8.73438C3.85448 8.73425 3.46099 8.34085 3.46094 7.85547C3.46094 7.37005 3.85445 6.97668 4.33984 6.97656ZM7.85645 6.97656C8.34184 6.97668 8.73535 7.37004 8.73535 7.85547C8.7353 8.34085 8.34181 8.73426 7.85645 8.73438C7.37098 8.73438 6.97759 8.34092 6.97754 7.85547C6.97754 7.36997 7.37095 6.97656 7.85645 6.97656ZM11.3721 6.97656C11.8576 6.97656 12.252 7.36997 12.252 7.85547C12.2519 8.34092 11.8575 8.73438 11.3721 8.73438C10.8868 8.73419 10.4932 8.34081 10.4932 7.85547C10.4932 7.37008 10.8867 6.97674 11.3721 6.97656Z" fill="black"/>
</svg>
