<svg width="22" height="22" viewBox="0 0 22 22" fill="none" xmlns="http://www.w3.org/2000/svg">
<path d="M17.9182 6.60465H14.0545V5.7907C14.0545 5.31578 13.8754 4.8603 13.5566 4.52448C13.2378 4.18866 12.8054 4 12.3545 4H8.64545C8.19459 4 7.76219 4.18866 7.44337 4.52448C7.12456 4.8603 6.94546 5.31578 6.94546 5.7907V6.60465H3.08182C2.7949 6.60465 2.51974 6.72471 2.31686 6.93841C2.11398 7.15212 2 7.44196 2 7.74419V16.8605C2 17.1627 2.11398 17.4525 2.31686 17.6662C2.51974 17.8799 2.7949 18 3.08182 18H17.9182C18.2051 18 18.4803 17.8799 18.6831 17.6662C18.886 17.4525 19 17.1627 19 16.8605V7.74419C19 7.44196 18.886 7.15212 18.6831 6.93841C18.4803 6.72471 18.2051 6.60465 17.9182 6.60465ZM7.87273 5.7907C7.87273 5.57482 7.95414 5.36779 8.09905 5.21515C8.24397 5.0625 8.44052 4.97674 8.64545 4.97674H12.3545C12.5595 4.97674 12.756 5.0625 12.9009 5.21515C13.0459 5.36779 13.1273 5.57482 13.1273 5.7907V6.60465H7.87273V5.7907ZM3.08182 7.5814H17.9182C17.9592 7.5814 17.9985 7.59855 18.0275 7.62908C18.0564 7.65961 18.0727 7.70101 18.0727 7.74419V10.5116H15.2909V9.69767C15.2909 9.56815 15.2421 9.44393 15.1551 9.35234C15.0682 9.26076 14.9502 9.2093 14.8273 9.2093C14.7043 9.2093 14.5864 9.26076 14.4994 9.35234C14.4125 9.44393 14.3636 9.56815 14.3636 9.69767V10.5116H6.63636V9.69767C6.63636 9.56815 6.58752 9.44393 6.50057 9.35234C6.41362 9.26076 6.29569 9.2093 6.17273 9.2093C6.04976 9.2093 5.93184 9.26076 5.84489 9.35234C5.75794 9.44393 5.70909 9.56815 5.70909 9.69767V10.5116H2.92727V7.74419C2.92727 7.70101 2.94356 7.65961 2.97254 7.62908C3.00152 7.59855 3.04083 7.5814 3.08182 7.5814ZM17.9182 17.0233H3.08182C3.04083 17.0233 3.00152 17.0061 2.97254 16.9756C2.94356 16.945 2.92727 16.9036 2.92727 16.8605V11.4884H5.70909V12.3023C5.70909 12.4319 5.75794 12.5561 5.84489 12.6477C5.93184 12.7392 6.04976 12.7907 6.17273 12.7907C6.29569 12.7907 6.41362 12.7392 6.50057 12.6477C6.58752 12.5561 6.63636 12.4319 6.63636 12.3023V11.4884H14.3636V12.3023C14.3636 12.4319 14.4125 12.5561 14.4994 12.6477C14.5864 12.7392 14.7043 12.7907 14.8273 12.7907C14.9502 12.7907 15.0682 12.7392 15.1551 12.6477C15.2421 12.5561 15.2909 12.4319 15.2909 12.3023V11.4884H18.0727V16.8605C18.0727 16.9036 18.0564 16.945 18.0275 16.9756C17.9985 17.0061 17.9592 17.0233 17.9182 17.0233Z" fill="black"/>
</svg>
