<svg width="60" height="24" viewBox="0 0 60 24" fill="none" xmlns="http://www.w3.org/2000/svg">
<g clip-path="url(#clip0_3_228)">
<path d="M46.9475 2.32779C47.5911 2.32779 48.1129 1.8067 48.1129 1.16389C48.1129 0.521093 47.5911 0 46.9475 0C46.3039 0 45.7821 0.521093 45.7821 1.16389C45.7821 1.8067 46.3039 2.32779 46.9475 2.32779Z" fill="black"/>
<path d="M55.9471 7.89895C57.0195 7.89895 57.8889 7.03069 57.8889 5.95963C57.8889 4.88857 57.0195 4.02031 55.9471 4.02031C54.8747 4.02031 54.0053 4.88857 54.0053 5.95963C54.0053 7.03069 54.8747 7.89895 55.9471 7.89895Z" fill="black"/>
<path d="M46.9475 24C47.5911 24 48.1129 23.4789 48.1129 22.8361C48.1129 22.1933 47.5911 21.6722 46.9475 21.6722C46.3039 21.6722 45.7821 22.1933 45.7821 22.8361C45.7821 23.4789 46.3039 24 46.9475 24Z" fill="black"/>
<path d="M55.9471 19.9782C57.0195 19.9782 57.8889 19.1099 57.8889 18.0389C57.8889 16.9678 57.0195 16.0995 55.9471 16.0995C54.8747 16.0995 54.0053 16.9678 54.0053 18.0389C54.0053 19.1099 54.8747 19.9782 55.9471 19.9782Z" fill="black"/>
<path d="M53.1557 2.65837C52.9452 3.44446 52.1352 3.91063 51.3482 3.70039C50.5611 3.49016 50.0943 2.68122 50.3048 1.89514C50.5153 1.10905 51.3253 0.642885 52.1124 0.853117C52.8995 1.06335 53.3677 1.87229 53.1557 2.65837Z" fill="black"/>
<path d="M53.1557 22.1033C52.9452 22.8894 52.1352 23.3556 51.3482 23.1454C50.5611 22.9351 50.0943 22.1262 50.3048 21.3401C50.5153 20.554 51.3253 20.0879 52.1124 20.2981C52.8995 20.5098 53.3662 21.3173 53.1557 22.1033Z" fill="black"/>
<path d="M59.5322 13.3679C60.2818 12.4058 60.1086 11.0189 59.1453 10.2702C58.1819 9.52143 56.7932 9.69443 56.0435 10.6566C55.2939 11.6187 55.4671 13.0056 56.4304 13.7543C57.3938 14.5031 58.7825 14.3301 59.5322 13.3679Z" fill="black"/>
<path d="M17.4806 7.14638H20.0142V16.8171H17.4806V7.14638ZM19.0212 2.82443C18.2448 2.61724 17.4471 3.07731 17.2381 3.85426C17.0306 4.62968 17.4913 5.42643 18.2692 5.63514C19.0456 5.84233 19.8434 5.38225 20.0524 4.60531C20.2598 3.82988 19.7992 3.03313 19.0212 2.82443ZM27.7722 17.0136C27.1621 17.0212 26.558 16.9009 25.9982 16.6602C25.4872 16.4408 25.0464 16.0843 24.7245 15.6303V21.6341H22.2641V7.14638H24.7032V8.49003C25.025 8.0132 25.4628 7.62473 25.9769 7.3627C26.526 7.08239 27.1361 6.94071 27.7524 6.94985C28.3549 6.94985 28.9528 7.06716 29.5096 7.29872C30.0694 7.5318 30.5758 7.8761 30.9968 8.31027C31.4392 8.77187 31.79 9.31421 32.028 9.90834C32.2919 10.568 32.423 11.2749 32.4139 11.9848C32.4261 12.6993 32.2919 13.4092 32.0203 14.0719C31.7748 14.6599 31.4209 15.1977 30.9785 15.6562C30.138 16.5261 28.9803 17.0166 27.7692 17.0182L27.7722 17.0136ZM27.2704 14.6858C27.6288 14.6873 27.9827 14.6157 28.3122 14.471C28.6295 14.3308 28.9178 14.1343 29.1633 13.889C29.4104 13.6423 29.6057 13.3513 29.7384 13.0283C30.0114 12.3443 30.0114 11.5811 29.7384 10.8986C29.6057 10.5771 29.4104 10.2846 29.1633 10.0378C28.9178 9.79256 28.6295 9.59604 28.3122 9.45588C27.9842 9.31116 27.6288 9.23804 27.2704 9.24108C26.9043 9.23804 26.5397 9.31116 26.2041 9.45588C25.8853 9.59299 25.5955 9.79104 25.3515 10.0378C25.1089 10.2877 24.9183 10.5832 24.7871 10.9062C24.6498 11.2413 24.5796 11.6009 24.5812 11.9634C24.5751 12.681 24.8527 13.3726 25.3515 13.889C25.8564 14.404 26.5489 14.6919 27.2704 14.6873V14.6843V14.6858ZM34.2016 7.14638H36.6406V8.63171C36.8405 8.10613 37.2081 7.66282 37.6886 7.3688C38.1843 7.09306 38.7456 6.95442 39.3131 6.96966C39.6182 6.96814 39.9217 7.00317 40.2176 7.0763C40.4693 7.13571 40.7118 7.22559 40.9422 7.3429L40.0468 9.77885C39.8836 9.66916 39.7036 9.5869 39.5129 9.53815C39.2688 9.4696 39.0156 9.43608 38.7609 9.43913C38.1263 9.43913 37.6184 9.61737 37.2355 9.97232C36.8527 10.3273 36.662 10.9077 36.662 11.7136V16.8171H34.1985L34.2016 7.14638ZM46.4182 17.0136C45.7226 17.0182 45.0332 16.8826 44.391 16.6144C43.7854 16.3616 43.2332 15.9944 42.768 15.5313C41.8223 14.5898 41.2945 13.3101 41.3021 11.9756C41.2976 11.3038 41.4287 10.6365 41.6881 10.015C41.9367 9.41628 42.3028 8.87241 42.7634 8.41691C43.7366 7.46477 45.0499 6.93767 46.4121 6.9529C47.1046 6.94985 47.791 7.08544 48.4286 7.35204C49.0372 7.60188 49.5909 7.96598 50.0608 8.42605C51.0111 9.36753 51.5449 10.6518 51.5388 11.9893C51.5434 12.6596 51.4092 13.3254 51.1453 13.9408C50.889 14.535 50.5245 15.0773 50.0699 15.5389C49.6062 16.0051 49.054 16.3737 48.4454 16.6221C47.8017 16.8856 47.1107 17.0182 46.4151 17.0121L46.4182 17.0136ZM46.4365 14.6675C46.795 14.6706 47.1488 14.5959 47.4768 14.4512C47.791 14.3141 48.0778 14.1206 48.3203 13.8784C48.5629 13.6346 48.7535 13.3452 48.8847 13.0268C49.0235 12.6886 49.0952 12.3275 49.0906 11.9619C49.0906 11.5993 49.022 11.2398 48.8847 10.9047C48.7551 10.5832 48.5644 10.2922 48.3203 10.0454C48.0778 9.80323 47.791 9.60975 47.4768 9.47264C46.8133 9.18472 46.0597 9.18472 45.3977 9.47264C45.0835 9.60975 44.7983 9.80475 44.5557 10.0454C44.3132 10.2907 44.121 10.5832 43.9914 10.9047C43.8525 11.2398 43.7824 11.5993 43.7854 11.9619C43.7824 12.3275 43.8525 12.6901 43.9914 13.0268C44.121 13.3452 44.3132 13.6346 44.5557 13.8784C44.7983 14.1191 45.085 14.3141 45.3977 14.4512C45.7257 14.5944 46.0796 14.666 46.4365 14.6614V14.666V14.6675ZM0 7.14333H2.50769L4.46015 13.3132L6.75124 7.14333H8.95538L11.2129 13.3132L13.2371 7.14333H15.7448L12.4668 16.8034H10.1391L7.82662 10.507L5.49892 16.8034H3.13309L0 7.14333Z" fill="black"/>
</g>
<defs>
<clipPath id="clip0_3_228">
<rect width="60" height="24" fill="white"/>
</clipPath>
</defs>
</svg>
